<svg xmlns="http://www.w3.org/2000/svg" version="1.1"><circle cx="222.4" cy="81.3" r="20" stroke="black" stroke-width="1" fill="white"/>
<text font-family = "serif" font-size = "12" x="212.4" y="81.3" fill="black">0</text><circle cx="778.8" cy="423.9" r="20" stroke="black" stroke-width="1" fill="white"/>
<text font-family = "serif" font-size = "12" x="768.8" y="423.9" fill="black">1</text><circle cx="837.2" cy="628.3" r="20" stroke="black" stroke-width="1" fill="white"/>
<text font-family = "serif" font-size = "12" x="827.2" y="628.3" fill="black">2</text><circle cx="938.4" cy="775.7" r="20" stroke="black" stroke-width="1" fill="white"/>
<text font-family = "serif" font-size = "12" x="928.4" y="775.7" fill="black">3</text><circle cx="45.8" cy="274.4" r="20" stroke="black" stroke-width="1" fill="white"/>
<text font-family = "serif" font-size = "12" x="35.8" y="274.4" fill="black">4</text><circle cx="273.5" cy="789.4" r="20" stroke="black" stroke-width="1" fill="white"/>
<text font-family = "serif" font-size = "12" x="263.5" y="789.4" fill="black">5</text><circle cx="51.5" cy="655.0" r="20" stroke="black" stroke-width="1" fill="white"/>
<text font-family = "serif" font-size = "12" x="41.5" y="655.0" fill="black">6</text><circle cx="13.1" cy="158.3" r="20" stroke="black" stroke-width="1" fill="white"/>
<text font-family = "serif" font-size = "12" x="3.1" y="158.3" fill="black">7</text><circle cx="519.3" cy="35.7" r="20" stroke="black" stroke-width="1" fill="white"/>
<text font-family = "serif" font-size = "12" x="509.3" y="35.7" fill="black">8</text><circle cx="849.0" cy="228.6" r="20" stroke="black" stroke-width="1" fill="white"/>
<text font-family = "serif" font-size = "12" x="839.0" y="228.6" fill="black">9</text><circle cx="368.9" cy="430.9" r="20" stroke="black" stroke-width="1" fill="white"/>
<text font-family = "serif" font-size = "12" x="358.9" y="430.9" fill="black">10</text><circle cx="122.2" cy="317.3" r="20" stroke="black" stroke-width="1" fill="white"/>
<text font-family = "serif" font-size = "12" x="112.2" y="317.3" fill="black">11</text><circle cx="79.6" cy="5.2" r="20" stroke="black" stroke-width="1" fill="white"/>
<text font-family = "serif" font-size = "12" x="69.6" y="5.2" fill="black">12</text><circle cx="108.9" cy="268.7" r="20" stroke="black" stroke-width="1" fill="white"/>
<text font-family = "serif" font-size = "12" x="98.9" y="268.7" fill="black">13</text><circle cx="531.4" cy="132.0" r="20" stroke="black" stroke-width="1" fill="white"/>
<text font-family = "serif" font-size = "12" x="521.4" y="132.0" fill="black">14</text><circle cx="932.3" cy="630.2" r="20" stroke="black" stroke-width="1" fill="white"/>
<text font-family = "serif" font-size = "12" x="922.3" y="630.2" fill="black">15</text><circle cx="828.2" cy="971.4" r="20" stroke="black" stroke-width="1" fill="white"/>
<text font-family = "serif" font-size = "12" x="818.2" y="971.4" fill="black">16</text><circle cx="503.0" cy="894.8" r="20" stroke="black" stroke-width="1" fill="white"/>
<text font-family = "serif" font-size = "12" x="493.0" y="894.8" fill="black">17</text><circle cx="123.3" cy="327.8" r="20" stroke="black" stroke-width="1" fill="white"/>
<text font-family = "serif" font-size = "12" x="113.3" y="327.8" fill="black">18</text><circle cx="414.0" cy="232.0" r="20" stroke="black" stroke-width="1" fill="white"/>
<text font-family = "serif" font-size = "12" x="404.0" y="232.0" fill="black">19</text></svg>